<svg id="Layer_1" data-name="Layer 1" xmlns="http://www.w3.org/2000/svg" viewBox="0 0 532.29 409.77"><defs><style>.cls-1{fill:#d63834;fill-rule:evenodd;}</style></defs><path class="cls-1" d="M214.08,101.11c0,.91.65,1.47,1.08,2.14Q241.37,144.13,267.6,185a10.45,10.45,0,0,0,.86,1.3,2.06,2.06,0,0,0,3.19-.23c3.76-7.07,8.15-13.81,11.7-21,.26-.53.54-1.06.75-1.62,3.27-8.83,8.44-16.66,12.93-24.86.42-.77.78-1.09,1.71-.62q10.2,5,20.44,9.9c1.28.6.91,1.24.45,2.07C317,154.58,314,159,311.09,163.5a125.88,125.88,0,0,0-16.47,36.32,91,91,0,0,0-2.9,22.46,113.12,113.12,0,0,0,.67,16.45,99.6,99.6,0,0,0,5.28,20.18,94,94,0,0,0,9.8,19.69c2.18,3.35,4.26,6.77,6.22,10.33a5.34,5.34,0,0,0,2.1-2.06c6.36-8.14,12.29-16.59,18.36-24.94a366.25,366.25,0,0,1,31.38-38.18c13-13.59,25.46-27.66,38.59-41.11,3.58-3.67,7.27-7.22,11-10.73a6.56,6.56,0,0,1,7.31-1.56,42.48,42.48,0,0,1,7.52,3.33,100,100,0,0,1,28.41,24.37,43.34,43.34,0,0,1,3.25,4.79,18.13,18.13,0,0,1,2.65,9.72c-.11,13.22,0,26.44-.05,39.67,0,9.44.79,18.83,1.58,28.22.3,3.55.45,7.11.67,10.66.09,1.41.2,2.8.3,4.26a2.93,2.93,0,0,0,.76-.12c15.92-8.71,29.32-20.18,39-35.69a75.27,75.27,0,0,0,11.15-31.4,95.71,95.71,0,0,0-4.24-41.08c-1.28-4-2.38-8-3.55-11.94-.17-.57-.23-1.17-.39-1.74-.31-1.05.2-1.33,1.13-1.28h23.62c1.91,0,1.93,0,2.36,1.8a258.4,258.4,0,0,1,5.13,27.77c.92,7.29,2,14.55,4.73,21.44.54,1.35.51,1.44,1.84.88a62.21,62.21,0,0,0,7.1-3.71c8.27-4.82,16.15-10.3,24.45-15.08,13.57-7.82,26.71-16.38,40.39-24,4-2.22,3-2.33,6.6.74,2.94,2.51,5.64,5.28,8.34,8,.51.52,1.15,1,1.3,1.8q-7.11,4.35-14.22,8.71c-6.32,3.9-12.63,7.81-18.76,12l-.92.62c-2.08,1.48-2.13,1.72-.59,3.87a48.11,48.11,0,0,0,5.61,6.33c1.36,1.32,1.37,1.32,3.18.31l32.06-17.94.59-.32c2.33-1.31,2-1.43,3.14.94,1.87,3.79,3.76,7.58,5.61,11.38.94,1.92,1.15,1.75-.94,2.68l-34.56,15.4c-2.44,1.09-2.44,1.09-1.44,3.6s2,5.1,3.07,7.65c.79,1.94.57,1.65,2.36,1q17.67-6.45,35.32-12.94l1.81-.65a22.57,22.57,0,0,1,.76,4.35q.76,5.63,1.57,11.23c.25,1.75.26,1.77-1.5,2.28l-30.56,8.84-4.92,1.4c-.67.2-1.17.47-1.16,1.36,0,3.47-.15,7,1.08,10.5l38.85-7.29a19.51,19.51,0,0,1,.18,4.4c0,3.71,0,7.43,0,11.14,0,1-.17,1.54-1.42,1.66-14.37,1.33-28.4,4.46-42.31,8.2-18,4.85-35.56,11-53.2,17a464.28,464.28,0,0,0-51.47,21c-11.58,5.55-23.18,11-34.56,17-1.77.92-3.62,1.71-5.48,2.46a1.59,1.59,0,0,0-1.19,1.79,60.78,60.78,0,0,0,1.11,9.72c3,15.88,5.93,31.79,9.72,47.51a556.26,556.26,0,0,0,21.12,68.64c3.08,8,6.57,15.9,9.82,23.87a50.37,50.37,0,0,1,2.92,9c-.57.58-1.19.37-1.75.36-23.7-.26-47.39-.59-71.09-.8-14-.13-27.93-.09-41.9-.12-.59,0-1.19,0-1.78,0s-1-.26-1.2-1c-1.67-7.22-3.48-14.42-4.43-21.79-.72-5.53-.79-11.09-1.05-16.65a103.41,103.41,0,0,1,.64-14.2c.15-1.71.09-1.73-1.56-1.78-13.06-.42-26.13-.66-39.2-.92-5.72-.12-11.44-.06-17.16-.2a3.85,3.85,0,0,0-4.1,2.66,44.94,44.94,0,0,0-2.57,9.65,131.34,131.34,0,0,0-1.7,25.74c.05,3.53.91,7,1.41,10.56.37,2.56.76,5.11,1.13,7.62a4.17,4.17,0,0,1-2.32.28H229.83c-2,0-2,0-1.77-2A242.75,242.75,0,0,1,232.87,481c6-27.51,14.15-54.4,23.43-80.94,5.89-16.84,13.64-32.89,21.68-48.79q4-7.84,8.12-15.6a2.15,2.15,0,0,0-.33-2.9c-4.94-5.55-9.9-11.08-15-16.43-8.7-9-17.26-18.25-26.63-26.62-5.54-5-11.22-9.75-16.85-14.58-3.67-3.15-7.33-6.29-10.81-9.64-8.54-8.23-18.2-15-27.83-21.87-14.3-10.16-29.41-19-44.2-28.44q-6.5-4.11-12.92-8.31c-1.91-1.25-1.79-1.28-1.37-3.62,1.15-6.39,4-12.22,5.85-18.39a5.2,5.2,0,0,1,2.3,1.15L175,209.19c.5.32,1,.63,1.5,1s.95.19,1.26-.35a52.12,52.12,0,0,0,4.18-8.6,2.77,2.77,0,0,0-.81-3,52,52,0,0,0-5.63-5.07c-7.54-5.91-15.12-11.77-22.66-17.68a81.8,81.8,0,0,1-7.94-6.82c-1.33-1.35-1.33-1.37-.49-3q4.35-8.4,8.71-16.8a4,4,0,0,1,1.31-1.8L191.37,183c.73-.16,1-.74,1.32-1.17,2.11-2.7,4.2-5.39,6.29-8.1,1.18-1.54,1.43-1.25-.06-2.88l-13.8-15.16c-6.05-6.65-12.08-13.32-18.19-19.91a3,3,0,0,1-.69-3.41,10.65,10.65,0,0,1,2.34-3.75,39.78,39.78,0,0,1,2.94-2.72c2.72-2.27,5.7-4.28,7.61-7.72,6.28,6.55,11.49,13.68,16.76,20.75a239.47,239.47,0,0,1,15,21.79,2.72,2.72,0,0,0,1.62-.69q5-2.91,10-5.85c1.45-.86,1.46-.89.55-2.27q-6.18-9.41-12.37-18.79l-15.06-22.89c-.45-.68-.88-1.37-1.28-2,.18-.73.76-.72,1.23-.88q7.8-2.64,15.6-5.28a3.81,3.81,0,0,0,2-.91ZM335,285.23c0,5-.06,9.8,0,14.62a154.05,154.05,0,0,0,1.66,23.5A54.14,54.14,0,0,0,342,340,26.9,26.9,0,0,0,358.2,353.7a46.26,46.26,0,0,0,20.06,1.21,60.19,60.19,0,0,0,15.52-4.62c8.29-3.57,16.22-7.82,22.86-14A171.71,171.71,0,0,0,436.82,314a50.85,50.85,0,0,0,7.06-11.81c.28-.7.79-1.4.45-2.29l-.7.28c-14.06,6.7-28.72,10.47-44.46,10.16a95.25,95.25,0,0,1-26.31-3.85c-10.95-3.36-21.11-8.28-29.81-15.9a52,52,0,0,0-5.42-4.28A4.24,4.24,0,0,0,335,285.23Z" transform="translate(-129.86 -101.11)"/></svg>